<svg class="favicon" version="1.1" id="Layer_1" xmlns="http://www.w3.org/2000/svg" xmlns:xlink="http://www.w3.org/1999/xlink" x="0px" y="0px"
	 width="100%" viewBox="0 0 240 208" enable-background="new 0 0 240 208" xml:space="preserve">
<path  
	d="
M57.632614,176.284271 
	C55.170300,174.855438 53.023026,173.577164 50.853733,172.337387 
	C43.553936,168.165375 38.880428,161.998154 38.442093,153.567551 
	C37.656982,138.467529 36.113220,123.240829 39.763348,108.322914 
	C42.744774,96.137955 50.030285,86.892105 60.893803,80.428688 
	C71.186646,74.304794 81.329788,74.350922 91.635437,80.323105 
	C93.560295,81.438560 95.282722,83.259560 98.502426,83.052162 
	C98.988121,74.714386 97.754776,66.042213 103.106873,57.519325 
	C88.086464,57.246902 78.186134,66.201431 67.158615,72.426544 
	C55.693329,78.898781 45.780956,86.980614 39.625603,99.643723 
	C34.841427,88.980461 39.212418,72.708977 47.814369,67.398811 
	C58.017723,61.100079 68.153496,54.629040 78.738762,49.026623 
	C94.392174,40.741821 110.312668,41.671234 125.484772,50.407093 
	C135.974182,56.446728 139.361511,66.480621 138.669876,78.151695 
	C138.294998,84.477356 138.142960,90.793823 138.993591,97.105019 
	C139.965759,104.317879 143.269180,109.986336 149.692291,113.635635 
	C154.469696,116.349930 159.213654,119.133430 164.086639,121.666557 
	C170.098099,124.791504 175.518921,128.508698 179.001007,135.194901 
	C184.162628,130.371628 185.342514,124.343163 185.488571,118.307472 
	C185.738098,107.997086 186.471542,97.582680 184.728455,87.379845 
	C183.331772,79.204674 180.499161,71.326454 176.717743,63.864548 
	C176.130859,62.706436 175.030685,61.764816 175.146866,60.283123 
	C176.271698,59.045464 177.323349,59.946186 178.238007,60.483700 
	C182.543854,63.014099 186.931610,65.436592 191.044174,68.256348 
	C196.034332,71.677826 198.850525,76.987183 198.972992,82.699036 
	C199.293488,97.647232 201.019592,112.747368 198.124664,127.537270 
	C194.976089,143.622940 184.764359,154.352493 169.733688,160.548584 
	C161.813660,163.813461 154.410522,162.004852 147.234329,158.057693 
	C144.961411,156.807495 142.951431,154.862320 139.422089,154.866241 
	C138.581757,162.986496 140.211868,171.508759 134.949753,179.542099 
	C150.291840,180.804855 159.721710,170.873703 170.706253,164.947937 
	C182.143768,158.777771 192.127625,150.840240 197.763474,138.034653 
	C202.836182,148.933304 198.690231,164.882080 189.297256,170.735931 
	C178.842682,177.251404 168.304474,183.736420 157.315109,189.265686 
	C140.833145,197.558563 124.618752,195.380142 109.462547,185.430069 
	C101.907028,180.469879 98.980324,172.757034 98.858772,163.919617 
	C98.764824,157.089279 98.834328,150.256470 98.715797,143.426758 
	C98.582253,135.731934 95.287720,129.597458 88.998314,125.219360 
	C85.864685,123.038010 82.560349,121.049179 79.158356,119.316643 
	C71.120895,115.223434 62.941620,111.383980 58.330879,102.391426 
	C54.081146,107.146935 52.447994,112.277588 52.358719,117.819771 
	C52.189678,128.313828 51.512424,138.898270 52.602730,149.281708 
	C53.420319,157.067978 56.911015,164.519012 60.072975,171.820175 
	C60.913143,173.760147 61.900440,175.636414 62.853935,177.611862 
	C60.468540,178.737946 59.378906,176.993607 57.632614,176.284271 
M124.783310,138.903946 
	C125.992889,132.774277 128.313492,131.498978 133.745712,134.402313 
	C140.790131,138.167297 147.617905,142.340912 154.694061,146.042084 
	C159.811615,148.718826 163.889801,148.165909 165.446899,145.176437 
	C167.087875,142.025940 165.278519,138.580429 160.298676,135.744263 
	C155.671036,133.108704 150.948517,130.640335 146.292862,128.053207 
	C131.738388,119.965408 124.382935,107.706421 124.641197,90.931023 
	C124.741043,84.445404 124.778954,77.934700 124.308662,71.474480 
	C124.068611,68.176857 122.779854,64.390724 118.526474,64.543159 
	C114.031456,64.704262 113.187073,68.365540 113.157410,72.141975 
	C113.094620,80.134079 113.086212,88.126656 113.010239,96.118614 
	C112.922241,105.377174 109.577141,107.273827 101.684792,102.738991 
	C94.470146,98.593582 87.184692,94.569984 79.893181,90.560471 
	C76.890892,88.909538 73.872421,89.107048 71.977463,92.103706 
	C70.038170,95.170502 71.584061,97.873383 74.087326,99.965080 
	C75.223885,100.914764 76.586769,101.604073 77.880859,102.352974 
	C84.075691,105.938004 90.355156,109.383080 96.466087,113.105209 
	C104.267136,117.856773 108.799301,125.110435 111.200569,133.731400 
	C112.587692,138.711426 113.077728,143.856155 113.103119,149.038620 
	C113.132507,155.031967 113.051651,161.033783 113.356262,167.014725 
	C113.529442,170.415039 115.228767,173.436234 119.034981,173.417328 
	C122.592743,173.399689 123.969398,170.419067 124.528374,167.280914 
	C124.788460,165.820801 124.720802,164.294556 124.725555,162.798035 
	C124.749886,155.138596 124.749390,147.479050 124.783310,138.903946 
z"/>
<path  
	d="
M65.194046,175.672394 
	C58.729721,164.380402 54.951763,152.853104 57.633045,140.041946 
	C59.487633,131.180756 65.184288,125.451645 73.221344,121.817429 
	C74.260750,121.347427 75.410210,120.718559 76.565018,121.348778 
	C80.449493,123.468697 84.646782,125.100609 88.802071,128.800873 
	C84.666039,131.295944 81.034317,133.450272 77.439285,135.664169 
	C72.203873,138.888229 70.149254,142.462143 71.755592,145.433487 
	C73.413460,148.500153 78.085533,148.555817 83.478424,145.677017 
	C87.084030,143.752304 90.211029,140.904922 94.771767,139.600677 
	C95.818810,144.451752 95.354607,149.058701 95.329506,153.607971 
	C95.320557,155.230545 93.623001,155.969864 92.422119,156.830368 
	C87.294830,160.504379 81.583771,162.530182 74.504677,162.506302 
	C75.913422,167.866898 78.956879,171.777664 82.963631,174.111954 
	C97.972786,182.856171 112.014099,193.744034 130.043304,196.185165 
	C133.793091,196.692871 137.587967,196.277512 141.500351,196.879547 
	C134.422241,206.139557 119.484642,210.596375 109.660240,205.684052 
	C97.616714,199.662140 85.735985,193.245148 74.471352,185.805435 
	C70.673637,183.297241 67.699478,179.921219 65.194046,175.672394 
z"/>
<path  
	d="
M175.049225,67.115433 
	C179.803101,76.306496 181.147491,85.769485 180.207382,95.574188 
	C179.207611,106.000954 172.645813,112.196960 163.752304,116.496246 
	C162.454117,117.123802 161.160294,117.179230 159.919113,116.483635 
	C156.315140,114.463852 152.684952,112.473778 149.566208,109.747536 
	C150.090393,106.892616 152.673584,106.738983 154.339722,105.589218 
	C157.348831,103.512726 160.660629,101.846809 163.530716,99.605667 
	C165.880630,97.770683 167.321274,95.011009 165.452560,92.122055 
	C163.556107,89.190239 160.631943,88.792320 157.560486,90.459068 
	C154.488571,92.126083 151.468384,93.888176 148.415146,95.589928 
	C146.831787,96.472443 145.370499,97.655319 143.440948,97.735153 
	C139.376205,85.102058 140.205124,78.809525 163.352554,75.002747 
	C161.591827,69.663773 158.287704,65.639999 153.767288,62.781578 
	C143.913284,56.550545 133.854294,50.636917 123.381966,45.494648 
	C116.856293,42.290321 109.815651,41.091461 102.558548,40.992779 
	C100.654129,40.966881 98.561577,41.603466 96.851349,40.080280 
	C102.938828,31.585329 119.000046,27.125118 128.214127,31.952690 
	C139.711700,37.976677 150.980377,44.458508 162.157257,51.065201 
	C168.226395,54.652695 171.800461,60.596561 175.049225,67.115433 
z"/>
<path  
	d="
M124.787140,120.878036 
	C121.252144,122.372696 120.788513,125.888741 118.572884,128.964920 
	C116.593040,124.284363 114.251717,120.478607 109.061913,119.168907 
	C113.810738,116.860924 117.210747,114.026466 118.487778,108.774178 
	C120.548752,113.138840 122.809639,117.060371 127.553772,118.057899 
	C127.431190,120.126007 126.035965,120.161011 124.787140,120.878036 
z"/>
<style>.favicon path { fill: #000000; } @media (prefers-color-scheme: dark) { .favicon path { fill: #ffffff; } }</style></svg>